<svg width="64" height="14" viewBox="0 0 64 14" fill="none" xmlns="http://www.w3.org/2000/svg">
<path d="M15.9014 13.9616C14.7858 13.8257 13.81 13.431 13.0648 12.8138C12.4432 12.2989 12.0402 11.7329 11.7432 10.9572C11.2793 9.74609 11.2792 8.18902 11.7427 7.00264C12.192 5.85291 13.2035 4.85211 14.4414 4.3325C16.1558 3.61292 18.5687 3.65813 20.1566 4.43956C21.5855 5.14284 22.4511 6.39245 22.6919 8.09973C22.7655 8.62102 22.7178 9.72206 22.6019 10.1766C22.1279 12.0367 20.7475 13.3362 18.7251 13.8261C18.5071 13.8789 18.1691 13.9405 17.974 13.9633C17.5611 14.0113 16.301 14.0103 15.9014 13.9616ZM18.3161 13.818C19.1325 13.6586 19.7833 13.4153 20.365 13.052C21.7802 12.1684 22.5555 10.8135 22.6271 9.09935C22.6977 7.40951 22.0882 5.96901 20.9096 5.04023C19.9528 4.2863 18.7472 3.92491 17.1888 3.92491C15.5368 3.92491 14.2064 4.35319 13.1827 5.21449C12.0864 6.1371 11.5064 7.42415 11.5064 8.93473C11.5064 10.5018 12.0304 11.7668 13.0465 12.6531C13.6068 13.1417 14.1522 13.4348 14.9342 13.6674C15.2107 13.7497 15.4142 13.7892 16.1536 13.9041C16.2169 13.914 16.6413 13.9158 17.0968 13.9081C17.7134 13.8979 18.0249 13.8748 18.3161 13.818ZM16.5703 13.2713C15.8146 12.9845 15.2786 12.1133 15.01 10.7344C14.8397 9.86033 14.8236 7.9166 14.9788 6.96418C15.1967 5.62669 15.657 4.83651 16.3736 4.56959C16.8648 4.38662 17.5456 4.49486 17.9834 4.82553C18.9556 5.55991 19.4462 7.64814 19.2345 10.1501C19.0826 11.9455 18.6165 12.9193 17.7474 13.2576C17.4323 13.3803 16.8749 13.3867 16.5703 13.2713ZM17.5705 13.2145C17.8964 13.1336 18.2985 12.8185 18.5127 12.4757C18.9553 11.7683 19.1529 10.7221 19.1577 9.06088C19.1639 6.97894 18.7736 5.65414 17.9497 4.96047C17.6037 4.66917 17.3584 4.5787 16.916 4.5793C15.9343 4.58061 15.3112 5.43756 15.065 7.12498C14.9518 7.90061 14.9513 9.74845 15.064 10.4267C15.4128 12.5254 16.3131 13.5268 17.5705 13.2145ZM35.6623 13.9611C35.2059 13.9224 33.8109 13.7284 33.3237 13.6357L32.9866 13.5716L33.0129 12.0664C33.0762 8.44259 33.0841 6.46432 33.0432 4.54045C33.0031 2.65581 32.9914 2.45654 32.9045 2.17775C32.7942 1.82451 32.6353 1.57811 32.4442 1.46428C32.3698 1.42006 32.168 1.35739 31.9957 1.32502C31.4228 1.21741 31.454 1.23466 31.4387 1.01612C31.4298 0.890241 31.4461 0.807076 31.4846 0.781564C31.5363 0.747353 36.2353 -0.00210001 36.385 4.42351e-06C36.428 0.000609871 36.434 0.502991 36.412 2.23215C36.3963 3.4594 36.3944 4.46351 36.4075 4.46351C36.4208 4.46351 36.5925 4.40134 36.7891 4.32536C37.382 4.09633 37.9284 3.99695 38.722 3.97383C39.2504 3.95843 39.4953 3.96807 39.7663 4.01497C41.5388 4.3216 42.8504 5.53467 43.3089 7.29119C43.4284 7.7494 43.4729 8.88818 43.3935 9.45859C43.3259 9.94476 43.1328 10.5998 42.9319 11.0249C42.1738 12.6289 40.5473 13.6754 38.3896 13.9474C37.8926 14.01 36.3318 14.0178 35.6623 13.9611ZM38.262 13.8694C39.6596 13.6942 40.6848 13.2928 41.5531 12.5811C42.8081 11.5523 43.4126 10.1002 43.3309 8.31068C43.2888 7.38933 43.1089 6.78748 42.6522 6.04085C42.0334 5.02934 40.9753 4.31983 39.7738 4.1109C38.8725 3.95417 37.7129 4.07692 36.8313 4.42239C36.6115 4.50848 36.4012 4.57893 36.3639 4.57893C36.3046 4.57893 36.2982 4.29404 36.3132 2.33494L36.3306 0.0909622L36.1459 0.121902C36.0444 0.138919 35.009 0.300245 33.8449 0.480405C32.6808 0.660565 31.6829 0.816867 31.6275 0.82775C31.5431 0.844281 31.5283 0.871166 31.5373 0.991614C31.5475 1.12585 31.5606 1.13799 31.7302 1.16921C32.3135 1.27652 32.4174 1.31476 32.6342 1.50208C32.9 1.73155 33.02 2.02459 33.0987 2.6361C33.1614 3.12339 33.1753 11.5188 33.1154 12.758L33.0799 13.4927L33.5545 13.5776C35.3511 13.8989 37.1419 14.0098 38.262 13.8694ZM36.6205 13.2842C36.5275 13.276 36.4281 13.2456 36.3995 13.2168C36.3206 13.1373 36.2352 7.91496 36.2878 6.3871L36.3294 5.17524L36.6975 5.0865C37.2407 4.9556 37.8252 4.97595 38.2397 5.14018C39.0721 5.47 39.6189 6.28473 39.9028 7.6182C39.9954 8.05255 39.9817 9.56118 39.8805 10.098C39.6689 11.2189 39.2839 12.0841 38.7481 12.643C38.4885 12.914 38.0571 13.1702 37.7198 13.2539C37.5021 13.308 37.0358 13.3208 36.6205 13.2842ZM37.5064 13.196C37.8406 13.143 38.1003 13.0318 38.3792 12.8222C39.0779 12.2969 39.6032 11.2124 39.8098 9.86878C39.894 9.32153 39.8826 8.07452 39.7894 7.61773C39.5371 6.38235 38.995 5.57041 38.204 5.24348C37.8759 5.10786 37.8253 5.0983 37.4362 5.0983C37.1578 5.0983 36.9185 5.12321 36.7149 5.17336L36.4102 5.24842L36.3877 6.65452C36.3589 8.45571 36.429 12.9651 36.4878 13.0945C36.5253 13.177 36.5666 13.1945 36.753 13.2067C37.1914 13.2355 37.2639 13.2345 37.5064 13.196ZM48.8905 13.9421C46.6078 13.5978 44.9753 12.2444 44.442 10.2538C44.3734 9.99777 44.3431 9.71131 44.3259 9.15706C44.2986 8.28022 44.3839 7.73598 44.6546 7.05975C45.1742 5.76132 46.1055 4.84123 47.4582 4.28977C48.8861 3.70772 50.8383 3.6696 52.102 4.19909C53.5247 4.79526 54.3618 5.98561 54.5742 7.71437C54.6028 7.94713 54.6194 8.22413 54.6111 8.32992L54.5959 8.52228L51.1911 8.53213L47.7862 8.54199L47.7992 8.87838C47.8293 9.65759 48.0297 10.3468 48.4003 10.946C48.5687 11.2184 48.7028 11.3668 49.0285 11.6418C49.7644 12.2631 50.4963 12.5035 51.6512 12.5035C52.4884 12.5035 53.0906 12.3638 53.7203 12.0235C53.8966 11.9281 54.0754 11.85 54.1175 11.85C54.2135 11.85 54.4349 12.0883 54.4349 12.1918C54.4349 12.3613 53.7747 12.908 53.1309 13.2717C52.6034 13.5695 51.7672 13.8392 51.0419 13.9454C50.534 14.0196 49.3931 14.0178 48.8905 13.9421ZM50.9367 13.8682C52.0028 13.7236 53.0527 13.2957 53.8072 12.6983C54.2205 12.3711 54.3576 12.2132 54.3001 12.1304C54.1468 11.9097 54.1533 11.9099 53.7617 12.111C53.1382 12.4313 52.8257 12.5196 52.0931 12.5824C51.2374 12.6559 50.4481 12.5363 49.7187 12.2228C49.2349 12.0148 48.6551 11.5363 48.3652 11.1059C47.9699 10.5187 47.7552 9.83269 47.6913 8.95112C47.6644 8.58096 47.6702 8.48872 47.7221 8.4612C47.7576 8.44243 49.2919 8.42701 51.1565 8.42668L54.5268 8.4261V8.31477C54.5268 8.06173 54.4275 7.38159 54.3385 7.025C53.9805 5.59119 53.0353 4.5688 51.6876 4.15752C51.1511 3.99383 50.6436 3.92491 49.9748 3.92491C48.39 3.92491 47.0958 4.35954 46.0947 5.22794C45.2964 5.92031 44.8227 6.6981 44.5337 7.79131C44.4466 8.1208 44.432 8.29202 44.432 8.98394C44.432 9.67074 44.4469 9.84786 44.5314 10.1655C45.0678 12.1834 46.6556 13.5122 48.9365 13.8526C49.5146 13.9388 50.3664 13.9455 50.9367 13.8682ZM47.7009 7.78118C47.6663 7.73435 47.7522 7.04956 47.8371 6.69487C48.042 5.83994 48.37 5.22257 48.8211 4.84241C49.064 4.63792 49.1747 4.57418 49.3726 4.52502C49.5088 4.49119 49.6632 4.46361 49.7155 4.46372C49.9267 4.4642 50.1758 4.55428 50.3612 4.69718C50.8589 5.08074 51.1437 5.9044 51.2 7.12359L51.2279 7.72541L50.7493 7.74771C49.7888 7.79247 47.726 7.81511 47.7009 7.78118ZM50.3352 7.6712L51.1357 7.64792L51.1069 7.17246C51.0053 5.49588 50.5146 4.57967 49.7187 4.5804C48.8537 4.5812 48.1625 5.51101 47.8751 7.06035C47.8398 7.25079 47.8105 7.47661 47.8101 7.5622L47.8092 7.71779L48.672 7.70614C49.1464 7.69973 49.8949 7.68401 50.3352 7.6712ZM58.0928 13.9793C57.273 13.906 55.9683 13.6671 55.534 13.511L55.3218 13.4348L55.293 12.5559C55.277 12.0724 55.2586 11.4261 55.2521 11.1196L55.2402 10.5623L55.3674 10.5113C55.4374 10.4833 55.5785 10.4571 55.6811 10.4531L55.8676 10.4459L56.0265 10.7728C56.6464 12.0486 57.3734 12.7365 58.323 12.9457C58.6853 13.0255 59.3644 13.0262 59.6327 12.947C60.3838 12.7252 60.7957 12.2497 60.7993 11.6C60.8036 10.8306 60.2977 10.4609 58.3869 9.83679C57.203 9.45011 56.79 9.25109 56.2984 8.83025C55.7678 8.37627 55.5133 7.8595 55.4655 7.13979C55.4077 6.27008 55.7332 5.53691 56.4546 4.91211C57.1805 4.28337 58.123 3.9426 59.4068 3.84465C60.5373 3.75839 62.2726 3.95887 63.1817 4.28078L63.3477 4.3395L63.3772 5.12285C63.3936 5.5537 63.4103 6.13125 63.4147 6.4063L63.4225 6.9064L63.1997 6.97557C62.8475 7.08491 62.8243 7.0712 62.6284 6.63717C62.0793 5.42054 61.4412 4.84487 60.447 4.66902C59.8411 4.56186 59.335 4.67707 58.9672 5.00591C58.6801 5.26245 58.5683 5.49027 58.5411 5.87284C58.5117 6.28735 58.6003 6.5114 58.9032 6.7885C59.2765 7.13005 59.8881 7.42487 61.1064 7.85057C62.5987 8.37198 63.3107 8.81464 63.6979 9.46162C63.9493 9.88177 64.0204 10.2174 63.9952 10.8633C63.9762 11.348 63.9577 11.4477 63.8257 11.7732C63.3958 12.8342 62.4251 13.5328 60.9255 13.8603C60.4176 13.9712 60.345 13.977 59.335 13.9862C58.7529 13.9915 58.194 13.9885 58.0928 13.9793ZM60.2783 13.8717C62.2331 13.6234 63.4953 12.7468 63.8264 11.4077C63.9862 10.761 63.9116 10.0419 63.6347 9.56102C63.2472 8.88777 62.5918 8.48132 60.9684 7.90747C59.7628 7.48128 59.0401 7.12 58.7441 6.79554C58.4996 6.52749 58.4201 6.32139 58.4233 5.96391C58.4283 5.42471 58.6727 5.01174 59.1394 4.75425C59.5301 4.53867 60.0197 4.48608 60.5897 4.59845C61.2787 4.73426 61.7966 5.08778 62.2645 5.74136C62.4133 5.94935 62.7195 6.53322 62.8684 6.89353C62.8916 6.94942 62.9182 6.95178 63.079 6.91211C63.1801 6.88712 63.277 6.8548 63.2945 6.84027C63.3119 6.82575 63.3107 6.27461 63.292 5.61554L63.2578 4.4172L63.0908 4.3581C62.8091 4.25835 62.0739 4.09111 61.5896 4.01663C61.2251 3.96057 60.9046 3.94605 60.0482 3.94684C59.026 3.94778 58.9425 3.95337 58.5204 4.04914C57.2941 4.32732 56.3849 4.90598 55.9097 5.71066C55.6572 6.13832 55.57 6.46796 55.5728 6.98341C55.5768 7.71527 55.8154 8.2555 56.3429 8.7275C56.7967 9.13364 57.3868 9.4234 58.3918 9.73372C59.1828 9.97791 59.9991 10.3189 60.3085 10.5341C60.4904 10.6608 60.6333 10.8049 60.7399 10.9693C60.8914 11.2033 60.8992 11.2341 60.8994 11.6C60.8994 11.9524 60.8872 12.0064 60.7534 12.2426C60.4037 12.8596 59.7043 13.1659 58.7882 13.1034C57.5435 13.0182 56.6671 12.3299 55.9537 10.8769C55.7674 10.4979 55.7547 10.49 55.4719 10.5799L55.342 10.6213L55.3744 11.9763C55.4033 13.1789 55.4155 13.3368 55.4841 13.3808C55.6887 13.5119 57.0129 13.7748 57.9317 13.8665C58.6449 13.9377 59.739 13.9401 60.2783 13.8717ZM0.0611571 13.7482C0.0229023 13.7353 0.00364317 13.6394 0.00364317 13.4619C0.00364317 13.1431 -0.0206556 13.1574 0.716817 13.0429C1.28244 12.9553 1.4848 12.8655 1.73457 12.5917C2.21885 12.0608 2.32353 11.0385 2.32461 6.82953C2.32563 2.87672 2.23456 2.04519 1.73371 1.43428C1.51149 1.16322 1.13701 1.01605 0.509766 0.953239L0.0266487 0.904871L0.0133244 0.589509L0 0.274147L0.151357 0.251595C0.234605 0.23919 3.15944 0.233949 6.65099 0.239947L12.9992 0.250852L13.0291 0.404735C13.0454 0.489374 13.0723 1.35753 13.0887 2.33396L13.1187 4.1093L12.7914 4.19243C12.2987 4.31756 12.3016 4.31908 12.08 3.82872C11.5356 2.62425 10.9113 1.93023 10.0571 1.57977C9.46793 1.33805 9.19553 1.30882 7.53172 1.30882H6.08374L6.05877 1.5108C6.01197 1.88956 5.93806 4.326 5.93857 5.47339L5.93909 6.61792L6.36468 6.61589C6.59877 6.61476 7.06035 6.60036 7.39042 6.58388C7.8866 6.5591 8.03403 6.53708 8.24163 6.45673C8.75167 6.25929 9.09867 5.82478 9.31125 5.11729L9.421 4.75204L9.79655 4.74088L10.1721 4.7297V7.04112V9.35253L9.79641 9.34136L9.42072 9.33018L9.31407 8.9647C9.1137 8.278 8.72809 7.78638 8.25161 7.61015C8.03155 7.52875 7.48705 7.4825 6.43371 7.4557L5.93909 7.44312V8.31148C5.93909 9.25777 6.0013 10.5379 6.08105 11.2327C6.19224 12.2012 6.48824 12.7364 7.01982 12.9301C7.12134 12.967 7.4425 13.0271 7.73351 13.0635C8.02454 13.1 8.29889 13.1455 8.34317 13.1646C8.45547 13.2131 8.46211 13.7147 8.35091 13.7503C8.26388 13.7782 0.144046 13.7761 0.0611571 13.7482ZM8.33167 13.4467C8.33167 13.3302 8.31923 13.235 8.30403 13.235C8.08481 13.235 7.06319 13.0509 6.89898 12.9817C6.31471 12.7358 6.04463 12.1511 5.93983 10.9055C5.86534 10.02 5.79121 7.41868 5.83932 7.37845C5.88295 7.34196 7.82826 7.40677 8.0556 7.45228C8.6842 7.57812 9.16872 8.09514 9.41133 8.89895L9.51826 9.25324L9.79917 9.2647L10.0801 9.27614V7.04295V4.80975H9.78101C9.50141 4.80975 9.48194 4.8154 9.48194 4.89644C9.48194 5.04221 9.30742 5.50347 9.1422 5.79436C8.88345 6.24995 8.51901 6.52496 8.0556 6.6143C7.94171 6.63626 7.40417 6.67144 6.86104 6.69246C6.09502 6.72211 5.86518 6.7202 5.8363 6.68393C5.7829 6.61688 5.90462 1.55164 5.96527 1.31628L5.98815 1.22755L7.67753 1.23933L9.36692 1.25111L9.76004 1.36884C10.6706 1.64151 11.3258 2.19832 11.8733 3.16468C11.9963 3.38179 12.1539 3.69792 12.2236 3.8672C12.2932 4.03648 12.3549 4.18036 12.3606 4.18693C12.3663 4.19351 12.5174 4.16169 12.6964 4.11622L13.022 4.03355L12.9991 2.77699C12.9865 2.08588 12.9642 1.2564 12.9496 0.933725L12.9231 0.347026H6.50718H0.0912744L0.104973 0.587315L0.118671 0.827592L0.532771 0.870896C1.08518 0.928661 1.28773 0.978988 1.51018 1.11372C1.84738 1.31796 2.05475 1.61799 2.18534 2.09056C2.38821 2.82473 2.46124 4.48042 2.42741 7.57972C2.39168 10.8545 2.34228 11.5356 2.09259 12.1963C1.88724 12.7398 1.50503 13.0277 0.87371 13.115C0.699957 13.1389 0.453815 13.1772 0.32673 13.2L0.0956655 13.2414V13.4499V13.6583H4.21366H8.33167V13.4467ZM22.7423 13.7409C22.7004 13.7186 22.6868 13.6298 22.6964 13.4432L22.7102 13.1774L22.8712 13.1487C22.9598 13.133 23.15 13.1016 23.294 13.0792C23.7395 13.0095 23.9955 12.8073 24.1396 12.4114C24.2569 12.0887 24.3087 11.0565 24.3114 8.98394C24.3146 6.44904 24.2515 5.85041 23.945 5.51107C23.7788 5.32716 23.6591 5.27485 23.2559 5.21016C23.0569 5.17823 22.8477 5.144 22.7907 5.13408C22.6985 5.11803 22.6872 5.09292 22.6872 4.90437C22.6872 4.72105 22.701 4.68792 22.7907 4.65709C22.9284 4.60975 27.4865 3.84796 27.6321 3.84796H27.7457L27.7234 4.41542C27.7112 4.72752 27.6915 5.18197 27.6799 5.4253L27.6586 5.86773L27.8237 5.61873C28.3523 4.82166 28.9452 4.32687 29.7335 4.0248C30.1662 3.85898 30.4549 3.80949 30.9895 3.80949C31.6236 3.80949 32.2574 3.98247 32.2574 4.15551C32.2574 4.27186 31.1404 6.73987 31.0788 6.75964C31.0487 6.76929 30.8306 6.69952 30.5941 6.60461C30.1007 6.40669 29.6379 6.30991 29.1887 6.31072C28.6292 6.31173 28.0042 6.48405 27.7575 6.70531C27.6519 6.79996 27.6514 6.80565 27.6251 8.21914C27.5992 9.61893 27.655 11.3264 27.7491 12.0131C27.8294 12.5982 28.0152 12.8862 28.3993 13.0203C28.5274 13.065 29.3378 13.1578 29.6023 13.1581C29.6222 13.1581 29.6327 13.2923 29.6252 13.4563L29.6118 13.7544L26.207 13.7636C24.3343 13.7687 22.7753 13.7584 22.7423 13.7409ZM29.5428 13.45V13.2417L29.1863 13.2165C28.3638 13.1584 28.1384 13.0893 27.9225 12.8292C27.6094 12.4523 27.5413 11.7569 27.5413 8.93895V6.73954L27.6554 6.63802C27.7993 6.50993 28.2492 6.33119 28.5674 6.27572C29.2134 6.16308 30.0392 6.26039 30.685 6.52525C30.8704 6.60126 31.0298 6.65696 31.0393 6.64902C31.0583 6.63312 32.1192 4.28914 32.1521 4.19027C32.167 4.1454 32.1059 4.10632 31.9275 4.04662C31.5455 3.91883 31.2144 3.87501 30.7871 3.89574C29.6444 3.95119 28.6303 4.58595 27.8999 5.70298C27.7786 5.88842 27.6529 6.0403 27.6208 6.04049C27.5738 6.04076 27.5684 5.82775 27.5936 4.98059L27.6251 3.92034L27.5141 3.9422C27.4532 3.95422 26.5337 4.10999 25.4709 4.28835C23.1913 4.67086 22.8744 4.7266 22.82 4.75469C22.7976 4.76631 22.7791 4.83506 22.7791 4.90747C22.7791 5.05274 22.7589 5.04432 23.2768 5.11397C23.9889 5.20972 24.2403 5.50001 24.3465 6.34862C24.4849 7.4551 24.4296 11.7685 24.2695 12.3574C24.1876 12.6584 23.976 12.9484 23.7629 13.0515C23.6839 13.0896 23.4356 13.1509 23.2107 13.1875L22.8021 13.2543L22.7882 13.4563L22.7744 13.6583H26.1586H29.5428V13.45Z" fill="black"/>
<path d="M8.3317 13.4467C8.3317 13.3303 8.31927 13.2351 8.30407 13.2351C8.08484 13.2351 7.06323 13.0509 6.89901 12.9817C6.31475 12.7358 6.04466 12.1511 5.93987 10.9055C5.86537 10.02 5.79124 7.4187 5.83936 7.37847C5.88298 7.34198 7.8283 7.40679 8.05564 7.4523C8.68423 7.57814 9.16876 8.09516 9.41136 8.89897L9.51829 9.25326L9.79921 9.26472L10.0801 9.27616V7.04297V4.80977H9.78105C9.50144 4.80977 9.48197 4.81542 9.48197 4.89646C9.48197 5.04223 9.30746 5.50349 9.14224 5.79438C8.88348 6.24997 8.51904 6.52498 8.05564 6.61432C7.94175 6.63628 7.40421 6.67146 6.86107 6.69248C6.09505 6.72213 5.86522 6.72022 5.83633 6.68395C5.78293 6.6169 5.90465 1.55166 5.96531 1.3163L5.98819 1.22757L7.67756 1.23935L9.36695 1.25113L9.76007 1.36886C10.6707 1.64153 11.3259 2.19834 11.8733 3.1647C11.9963 3.38181 12.1539 3.69794 12.2236 3.86722C12.2933 4.0365 12.3549 4.18037 12.3606 4.18695C12.3663 4.19353 12.5174 4.16171 12.6965 4.11624L13.022 4.03357L12.9991 2.77701C12.9865 2.0859 12.9643 1.25642 12.9496 0.933745L12.9231 0.347046H6.50722H0.0913086L0.105007 0.587334L0.118705 0.827612L0.532805 0.870916C1.08522 0.928681 1.28776 0.979007 1.51021 1.11374C1.84741 1.31798 2.05479 1.61801 2.18537 2.09058C2.38824 2.82475 2.46127 4.48044 2.42745 7.57974C2.39172 10.8546 2.34232 11.5356 2.09263 12.1963C1.88727 12.7398 1.50507 13.0278 0.873744 13.115C0.699991 13.1389 0.453849 13.1772 0.326764 13.2001L0.0956997 13.2415V13.4499V13.6583H4.21369H8.3317V13.4467Z" fill="black"/>
<path fill-rule="evenodd" clip-rule="evenodd" d="M18.316 13.818C19.1325 13.6586 19.7832 13.4153 20.365 13.0521C21.7801 12.1684 22.5554 10.8135 22.627 9.09937C22.6976 7.40953 22.0881 5.96903 20.9095 5.04024C19.9528 4.28632 18.7471 3.92493 17.1887 3.92493C15.5367 3.92493 14.2063 4.35321 13.1827 5.21451C12.0863 6.13712 11.5063 7.42417 11.5063 8.93475C11.5063 10.5019 12.0303 11.7668 13.0465 12.6531C13.6067 13.1418 14.1522 13.4348 14.9341 13.6674C15.2106 13.7497 15.4141 13.7892 16.1535 13.9041C16.2168 13.914 16.6412 13.9158 17.0968 13.9081C17.7133 13.8979 18.0248 13.8748 18.316 13.818ZM15.0099 10.7344C15.2786 12.1133 15.8145 12.9845 16.5702 13.2713C16.8748 13.3867 17.4322 13.3803 17.7473 13.2577C18.6165 12.9193 19.0826 11.9455 19.2344 10.1501C19.4461 7.64816 18.9555 5.55993 17.9833 4.82555C17.5455 4.49488 16.8647 4.38664 16.3736 4.5696C15.6569 4.83653 15.1966 5.62671 14.9788 6.9642C14.8235 7.91662 14.8396 9.86035 15.0099 10.7344Z" fill="black"/>
<path d="M29.5428 13.45V13.2417L29.1863 13.2164C28.3638 13.1584 28.1385 13.0893 27.9226 12.8292C27.6095 12.4523 27.5413 11.7568 27.5413 8.93893V6.73953L27.6554 6.63801C27.7993 6.50992 28.2492 6.33118 28.5674 6.27571C29.2134 6.16307 30.0393 6.26038 30.685 6.52523C30.8705 6.60124 31.0299 6.65695 31.0394 6.649C31.0584 6.6331 32.1192 4.28913 32.1521 4.19025C32.1671 4.14539 32.106 4.1063 31.9276 4.0466C31.5456 3.91882 31.2144 3.87499 30.7872 3.89572C29.6444 3.95117 28.6303 4.58593 27.8999 5.70296C27.7786 5.8884 27.653 6.04028 27.6208 6.04047C27.5739 6.04074 27.5685 5.82773 27.5937 4.98058L27.6252 3.92032L27.5142 3.94219C27.4532 3.95421 26.5338 4.10997 25.4709 4.28833C23.1914 4.67084 22.8745 4.72658 22.8201 4.75467C22.7977 4.7663 22.7792 4.83504 22.7792 4.90745C22.7792 5.05272 22.759 5.04431 23.2769 5.11396C23.9889 5.2097 24.2404 5.49999 24.3466 6.34861C24.485 7.45508 24.4297 11.7684 24.2695 12.3573C24.1876 12.6584 23.9761 12.9484 23.7629 13.0515C23.684 13.0896 23.4356 13.1508 23.2108 13.1875L22.8022 13.2543L22.7883 13.4563L22.7744 13.6583H26.1586H29.5428V13.45Z" fill="black"/>
<path fill-rule="evenodd" clip-rule="evenodd" d="M38.2619 13.8694C39.6595 13.6942 40.6847 13.2927 41.553 12.5811C42.808 11.5522 43.4125 10.1002 43.3308 8.31066C43.2888 7.38931 43.1088 6.78746 42.6521 6.04083C42.0334 5.02932 40.9753 4.31981 39.7738 4.11088C38.8724 3.95415 37.7129 4.0769 36.8312 4.42237C36.6114 4.50846 36.4011 4.57891 36.3638 4.57891C36.3045 4.57891 36.2981 4.29402 36.3132 2.33492L36.3305 0.0909424L36.1458 0.121882C36.0443 0.138899 35.0089 0.300225 33.8448 0.480385C32.6807 0.660545 31.6828 0.816847 31.6274 0.82773C31.543 0.844261 31.5282 0.871146 31.5372 0.991594C31.5474 1.12583 31.5605 1.13797 31.7301 1.16919C32.3134 1.2765 32.4173 1.31474 32.6342 1.50206C32.8999 1.73154 33.0199 2.02457 33.0986 2.63608C33.1614 3.12337 33.1752 11.5188 33.1153 12.758L33.0798 13.4927L33.5544 13.5776C35.351 13.8989 37.1418 14.0098 38.2619 13.8694ZM36.3995 13.2168C36.428 13.2456 36.5274 13.276 36.6204 13.2842C37.0357 13.3208 37.5021 13.3079 37.7197 13.2539C38.057 13.1702 38.4884 12.9139 38.7481 12.643C39.2839 12.0841 39.6688 11.2189 39.8804 10.098C39.9816 9.56116 39.9954 8.05253 39.9028 7.61818C39.6188 6.28471 39.072 5.46998 38.2397 5.14016C37.8251 4.97592 37.2406 4.95558 36.6974 5.08648L36.3294 5.17522L36.2877 6.38708C36.2351 7.91494 36.3205 13.1373 36.3995 13.2168Z" fill="black"/>
<path fill-rule="evenodd" clip-rule="evenodd" d="M50.9369 13.8682C52.003 13.7236 53.0528 13.2957 53.8074 12.6984C54.2206 12.3711 54.3577 12.2132 54.3003 12.1304C54.1469 11.9097 54.1535 11.9099 53.7619 12.111C53.1384 12.4313 52.8258 12.5197 52.0932 12.5824C51.2376 12.6559 50.4483 12.5363 49.7189 12.2228C49.2351 12.0148 48.6553 11.5363 48.3654 11.106C47.97 10.5187 47.7554 9.83271 47.6914 8.95113C47.6646 8.58098 47.6704 8.48874 47.7223 8.46122C47.7578 8.44245 49.292 8.42703 51.1567 8.4267L54.527 8.42612V8.31478C54.527 8.06175 54.4277 7.38161 54.3387 7.02502C53.9806 5.59121 53.0355 4.56882 51.6877 4.15754C51.1513 3.99384 50.6438 3.92493 49.975 3.92493C48.3902 3.92493 47.096 4.35955 46.0948 5.22796C45.2965 5.92033 44.8229 6.69811 44.5339 7.79133C44.4468 8.12082 44.4321 8.29204 44.4321 8.98396C44.4321 9.67076 44.447 9.84788 44.5315 10.1656C45.068 12.1834 46.6557 13.5122 48.9367 13.8527C49.5148 13.9389 50.3666 13.9455 50.9369 13.8682ZM47.8373 6.69488C47.7524 7.04958 47.6665 7.73436 47.7011 7.7812C47.7262 7.81513 49.789 7.79249 50.7495 7.74773L51.2281 7.72543L51.2002 7.1236C51.1438 5.90441 50.8591 5.08076 50.3613 4.6972C50.176 4.5543 49.9269 4.46421 49.7157 4.46374C49.6633 4.46363 49.509 4.49121 49.3728 4.52504C49.1749 4.5742 49.0641 4.63794 48.8213 4.84243C48.3701 5.22259 48.0422 5.83995 47.8373 6.69488Z" fill="black"/>
<path d="M60.2784 13.8717C62.2331 13.6234 63.4954 12.7469 63.8264 11.4077C63.9863 10.761 63.9117 10.0419 63.6348 9.56105C63.2473 8.8878 62.5919 8.48135 60.9685 7.9075C59.7629 7.48131 59.0402 7.12002 58.7441 6.79557C58.4996 6.52752 58.4201 6.32142 58.4234 5.96393C58.4284 5.42474 58.6727 5.01177 59.1395 4.75427C59.5302 4.5387 60.0197 4.48611 60.5897 4.59848C61.2787 4.73429 61.7966 5.08781 62.2645 5.74139C62.4133 5.94938 62.7196 6.53325 62.8685 6.89355C62.8916 6.94945 62.9183 6.9518 63.079 6.91213C63.1801 6.88715 63.2771 6.85483 63.2946 6.8403C63.312 6.82577 63.3108 6.27464 63.292 5.61556L63.2578 4.41723L63.0909 4.35812C62.8092 4.25838 62.0739 4.09114 61.5897 4.01665C61.2252 3.9606 60.9047 3.94608 60.0483 3.94687C59.026 3.9478 58.9426 3.9534 58.5205 4.04916C57.2941 4.32734 56.385 4.90601 55.9097 5.71069C55.6573 6.13834 55.5701 6.46799 55.5729 6.98344C55.5769 7.7153 55.8155 8.25553 56.3429 8.72753C56.7968 9.13367 57.3869 9.42343 58.3919 9.73375C59.1828 9.97794 59.9991 10.3189 60.3086 10.5342C60.4904 10.6608 60.6333 10.8049 60.7399 10.9694C60.8915 11.2033 60.8993 11.2342 60.8994 11.6C60.8994 11.9525 60.8872 12.0064 60.7535 12.2426C60.4038 12.8596 59.7044 13.166 58.7882 13.1034C57.5435 13.0182 56.6671 12.3299 55.9537 10.877C55.7675 10.4979 55.7548 10.4901 55.4719 10.58L55.342 10.6213L55.3745 11.9763C55.4034 13.1789 55.4156 13.3368 55.4842 13.3808C55.6888 13.5119 57.013 13.7748 57.9318 13.8665C58.645 13.9377 59.7391 13.9401 60.2784 13.8717Z" fill="black"/>
</svg>
