<svg xmlns="http://www.w3.org/2000/svg" width="64" height="14" fill="none"><path fill="#000" d="M15.901 13.962c-1.115-.136-2.091-.531-2.836-1.148-.622-.515-1.025-1.081-1.322-1.857-.464-1.21-.464-2.768 0-3.954.449-1.15 1.46-2.15 2.698-2.67 1.715-.72 4.128-.675 5.716.107 1.428.703 2.294 1.952 2.535 3.66.073.521.026 1.622-.09 2.077-.474 1.86-1.855 3.16-3.877 3.65a8 8 0 0 1-.751.136c-.413.048-1.673.047-2.073-.001m2.415-.144c.817-.16 1.467-.403 2.049-.766 1.415-.884 2.19-2.238 2.262-3.953.07-1.69-.539-3.13-1.717-4.059-.957-.754-2.163-1.115-3.721-1.115-1.652 0-2.983.428-4.006 1.29-1.097.922-1.677 2.21-1.677 3.72 0 1.567.524 2.832 1.54 3.718.56.489 1.106.782 1.888 1.014.277.083.48.122 1.22.237.063.01.487.012.943.004.616-.01.928-.033 1.22-.09m-1.746-.547c-.755-.287-1.291-1.158-1.56-2.537-.17-.874-.186-2.817-.031-3.77.218-1.337.678-2.127 1.395-2.394.49-.183 1.172-.075 1.61.256.972.734 1.462 2.822 1.25 5.324-.151 1.795-.618 2.77-1.487 3.108-.315.122-.872.129-1.177.013m1-.057c.326-.08.729-.396.943-.738.442-.708.64-1.754.645-3.415.006-2.082-.384-3.407-1.208-4.1-.346-.292-.592-.382-1.034-.382-.982.002-1.605.859-1.851 2.546-.113.776-.114 2.623-.001 3.302.349 2.098 1.25 3.1 2.506 2.787m18.092.747a38 38 0 0 1-2.338-.325l-.337-.064.026-1.506c.063-3.623.071-5.602.03-7.526-.04-1.884-.052-2.083-.139-2.362-.11-.353-.269-.6-.46-.714a1.8 1.8 0 0 0-.448-.139c-.573-.108-.542-.09-.557-.309-.01-.126.007-.209.046-.234.051-.035 4.75-.784 4.9-.782.043 0 .049.503.027 2.232-.016 1.227-.018 2.232-.005 2.232.014 0 .186-.063.382-.139.593-.229 1.14-.328 1.933-.351.528-.016.773-.006 1.044.041 1.773.307 3.084 1.52 3.543 3.276.12.458.164 1.597.085 2.168a6.2 6.2 0 0 1-.462 1.566c-.758 1.604-2.385 2.65-4.542 2.922-.497.063-2.058.07-2.728.014m2.6-.092c1.398-.175 2.423-.576 3.291-1.288 1.255-1.029 1.86-2.48 1.778-4.27-.042-.922-.222-1.524-.679-2.27-.619-1.012-1.677-1.721-2.878-1.93-.901-.157-2.061-.034-2.943.311-.22.086-.43.157-.467.157-.06 0-.066-.285-.05-2.244L36.33.09l-.185.03c-.102.018-1.137.18-2.301.36s-2.162.336-2.217.347c-.085.016-.1.043-.09.164.01.134.023.146.192.177.583.108.687.146.904.333.266.23.386.523.465 1.134.062.487.076 8.883.016 10.122l-.035.735.474.085c1.797.32 3.588.432 4.708.291m-1.642-.585c-.092-.008-.192-.038-.22-.067-.08-.08-.165-5.302-.112-6.83l.041-1.212.368-.088c.544-.131 1.128-.111 1.543.053.832.33 1.379 1.145 1.663 2.478.092.435.079 1.943-.023 2.48-.211 1.12-.596 1.986-1.132 2.545-.26.271-.69.527-1.028.61-.218.055-.684.068-1.1.031m.886-.088c.335-.053.594-.164.873-.374.699-.525 1.224-1.61 1.43-2.953.085-.547.074-1.794-.02-2.251-.252-1.236-.794-2.048-1.585-2.375-.328-.135-.379-.145-.768-.145q-.416 0-.721.075l-.305.075-.022 1.407c-.03 1.8.041 6.31.1 6.44.037.082.079.1.265.112.438.028.51.027.753-.011m11.385.746c-2.283-.344-3.916-1.698-4.449-3.688-.069-.256-.099-.543-.116-1.097-.027-.877.058-1.421.329-2.097.52-1.299 1.45-2.219 2.803-2.77 1.428-.582 3.38-.62 4.644-.09 1.423.595 2.26 1.786 2.472 3.514.029.233.045.51.037.616l-.015.192-3.405.01-3.405.01.013.336q.045 1.17.601 2.068c.169.272.303.42.629.696.735.621 1.467.862 2.622.862.837 0 1.44-.14 2.07-.48.176-.096.354-.174.397-.174.096 0 .317.238.317.342 0 .17-.66.716-1.304 1.08-.528.297-1.364.567-2.09.673-.507.075-1.648.073-2.15-.003m2.046-.074c1.066-.144 2.116-.572 2.87-1.17.413-.327.55-.485.493-.568-.153-.22-.147-.22-.538-.019-.624.32-.936.409-1.669.471q-1.282.111-2.374-.36c-.484-.207-1.064-.686-1.354-1.116-.395-.587-.61-1.273-.674-2.155-.027-.37-.02-.462.031-.49.036-.019 1.57-.034 3.435-.034h3.37v-.112c0-.253-.1-.933-.188-1.29-.358-1.434-1.304-2.456-2.651-2.867-.537-.164-1.044-.233-1.713-.233q-2.379 0-3.88 1.303c-.799.692-1.272 1.47-1.561 2.563-.087.33-.102.501-.102 1.193 0 .687.015.864.1 1.181.536 2.018 2.124 3.347 4.405 3.688a8.2 8.2 0 0 0 2 .015M47.7 7.781c-.035-.047.051-.731.136-1.086q.307-1.282.984-1.853c.243-.204.354-.268.552-.317.136-.034.29-.061.343-.061.21 0 .46.09.645.233.498.384.783 1.207.839 2.427l.028.601-.479.023c-.96.044-3.023.067-3.048.033m2.634-.11.8-.023-.028-.476c-.102-1.676-.592-2.592-1.388-2.592-.865.001-1.556.931-1.844 2.48-.035.19-.065.417-.065.502v.156l.862-.012c.474-.006 1.223-.022 1.663-.035m7.758 6.308c-.82-.073-2.125-.312-2.559-.468l-.212-.076-.029-.88c-.016-.483-.034-1.129-.04-1.435l-.013-.558.127-.05a1.2 1.2 0 0 1 .314-.059l.187-.007.158.327c.62 1.276 1.347 1.963 2.297 2.173.362.08 1.041.08 1.31.001.75-.222 1.163-.697 1.166-1.347.005-.77-.501-1.14-2.412-1.763-1.184-.387-1.597-.586-2.089-1.007-.53-.454-.785-.97-.833-1.69-.057-.87.268-1.603.99-2.228.726-.629 1.668-.97 2.952-1.067 1.13-.087 2.866.114 3.775.436l.166.059.03.783c.016.43.032 1.008.037 1.283l.008.5-.223.07c-.353.109-.376.095-.572-.339-.549-1.216-1.187-1.792-2.181-1.968-.606-.107-1.112.008-1.48.337-.287.256-.399.484-.426.867-.03.414.06.638.362.915.373.342.985.637 2.203 1.063 1.493.521 2.205.964 2.592 1.61.251.42.322.756.297 1.402-.019.485-.037.585-.17.91-.43 1.061-1.4 1.76-2.9 2.087-.507.111-.58.117-1.59.126a28 28 0 0 1-1.242-.007m2.185-.107c1.955-.249 3.217-1.125 3.548-2.464.16-.647.086-1.366-.191-1.847-.388-.673-1.043-1.08-2.667-1.654-1.205-.426-1.928-.787-2.224-1.111-.244-.269-.324-.475-.32-.832.004-.54.249-.952.715-1.21.391-.215.88-.268 1.45-.156.69.136 1.208.49 1.675 1.143.15.208.455.792.604 1.153.024.055.05.058.211.018a1 1 0 0 0 .215-.072c.018-.014.017-.565-.002-1.224l-.034-1.199-.167-.059c-.282-.1-1.017-.267-1.501-.341-.365-.056-.685-.071-1.542-.07-1.022 0-1.105.006-1.528.102-1.226.278-2.135.857-2.61 1.662-.253.427-.34.757-.337 1.272.004.732.242 1.273.77 1.744.454.407 1.044.696 2.049 1.007.79.244 1.607.585 1.916.8q.272.189.432.435c.151.234.16.265.16.631 0 .352-.013.406-.147.643-.35.617-1.049.923-1.965.86-1.244-.085-2.12-.773-2.834-2.226-.187-.38-.2-.387-.482-.297l-.13.041.032 1.355c.03 1.203.041 1.36.11 1.405.205.13 1.529.394 2.448.486.713.07 1.807.073 2.346.005M.061 13.748q-.057-.02-.057-.286c0-.319-.025-.305.713-.42.565-.087.768-.176 1.018-.45.484-.531.589-1.553.59-5.762 0-3.953-.09-4.785-.591-5.396-.223-.27-.597-.418-1.224-.48L.027.903.013.59 0 .274.151.252C.235.239 3.16.234 6.651.24l6.348.01.03.155c.016.084.043.953.06 1.929l.03 1.775-.328.083c-.492.126-.49.127-.711-.363-.544-1.205-1.169-1.899-2.023-2.25-.59-.241-.861-.27-2.525-.27H6.084l-.025.202c-.047.379-.12 2.815-.12 3.962v1.145l.426-.002a28 28 0 0 0 1.025-.032c.497-.025.644-.047.852-.127.51-.198.857-.632 1.07-1.34l.109-.365.376-.011.375-.011v4.623l-.376-.012-.375-.01-.107-.366c-.2-.687-.586-1.179-1.062-1.355-.22-.081-.765-.128-1.818-.154l-.495-.013v.868c0 .947.062 2.227.142 2.922.111.968.407 1.503.939 1.697a5 5 0 0 0 .714.133c.29.037.565.082.61.102.111.048.118.55.007.585-.087.028-8.207.026-8.29-.002m8.27-.301c0-.117-.012-.212-.027-.212-.22 0-1.24-.184-1.405-.253-.584-.246-.854-.83-.96-2.076-.074-.886-.148-3.487-.1-3.528.044-.036 1.99.029 2.217.074.628.126 1.113.643 1.355 1.447l.107.354.281.012.281.011V4.81h-.299c-.28 0-.3.005-.3.086 0 .146-.174.607-.339.898q-.39.685-1.086.82c-.114.022-.652.057-1.195.078-.766.03-.996.028-1.025-.008-.053-.067.069-5.132.13-5.368l.022-.088 1.69.011 1.689.012.393.118c.91.273 1.566.83 2.113 1.796.123.217.28.533.35.702.07.17.132.313.138.32.005.007.156-.025.335-.07l.326-.083-.023-1.257a93 93 0 0 0-.05-1.843l-.026-.587H.091l.014.24.014.24.414.044c.552.058.755.108.977.243.337.204.545.504.675.977.203.734.276 2.39.242 5.489-.035 3.274-.085 3.956-.334 4.616-.206.544-.588.832-1.22.919-.173.024-.42.062-.546.085l-.231.041v.417h8.236zm14.411.294c-.042-.022-.055-.111-.046-.298l.014-.266.161-.028c.089-.016.279-.047.423-.07.445-.07.701-.272.846-.668.117-.322.169-1.354.171-3.427.004-2.535-.06-3.134-.366-3.473-.166-.184-.286-.236-.69-.3l-.464-.077c-.093-.016-.104-.041-.104-.23 0-.183.014-.216.104-.247.137-.047 4.695-.809 4.841-.809h.114l-.023.567a114 114 0 0 1-.043 1.01l-.021.443.165-.25c.528-.796 1.121-1.291 1.91-1.593.432-.166.72-.216 1.255-.216.635 0 1.268.173 1.268.347 0 .116-1.117 2.584-1.178 2.604-.03.01-.248-.06-.485-.155a3.7 3.7 0 0 0-1.405-.294c-.56 0-1.185.173-1.431.394-.106.095-.107.1-.133 1.514-.026 1.4.03 3.107.124 3.794.08.585.266.873.65 1.007.128.045.939.138 1.203.138.02 0 .03.134.023.298l-.013.298-3.405.01c-1.873.005-3.432-.006-3.465-.023m6.8-.291v-.208l-.356-.026c-.822-.058-1.048-.127-1.264-.387-.313-.377-.38-1.072-.38-3.89v-2.2l.113-.101c.144-.128.594-.307.912-.362.646-.113 1.472-.016 2.118.25.185.075.345.131.354.123.02-.016 1.08-2.36 1.113-2.459.015-.045-.046-.084-.225-.143a2.9 2.9 0 0 0-1.14-.151c-1.143.055-2.157.69-2.887 1.807-.121.185-.247.337-.28.337-.046 0-.052-.212-.026-1.06l.031-1.06-.11.022c-.062.012-.981.168-2.044.346-2.28.383-2.597.439-2.651.467-.022.011-.04.08-.04.152 0 .146-.021.137.497.207.712.096.963.386 1.07 1.235.138 1.106.083 5.42-.078 6.008-.081.301-.293.591-.506.695a3 3 0 0 1-.552.136l-.409.066-.014.202-.014.202h6.769z"/><path fill="#000" d="M8.332 13.447c0-.117-.013-.212-.028-.212-.22 0-1.24-.184-1.405-.253-.584-.246-.854-.83-.96-2.076-.074-.886-.148-3.487-.1-3.528.044-.036 1.99.029 2.217.074.628.126 1.113.643 1.355 1.447l.107.354.281.012.281.011V4.81h-.299c-.28 0-.299.005-.299.086 0 .146-.175.607-.34.898q-.39.685-1.086.82c-.114.022-.652.057-1.195.078-.766.03-.996.028-1.025-.008-.053-.067.069-5.132.13-5.368l.022-.088 1.69.011 1.689.012.393.118c.91.273 1.566.83 2.113 1.796.123.217.28.533.35.702.07.17.132.313.138.32.005.007.156-.025.335-.07l.326-.083-.023-1.257a92 92 0 0 0-.05-1.843l-.026-.587H.091l.014.24.014.24.414.044c.552.058.755.108.977.243.337.204.545.504.675.977.203.734.276 2.39.242 5.489-.035 3.275-.085 3.956-.334 4.616-.206.544-.588.832-1.22.919-.173.024-.42.062-.546.085l-.231.042v.416h8.236z"/><path fill="#000" fill-rule="evenodd" d="M18.316 13.818c.817-.16 1.467-.403 2.049-.766 1.415-.884 2.19-2.238 2.262-3.953.07-1.69-.539-3.13-1.717-4.059-.957-.754-2.163-1.115-3.721-1.115-1.652 0-2.983.428-4.006 1.29-1.097.922-1.677 2.21-1.677 3.72 0 1.567.524 2.832 1.54 3.718.56.489 1.106.782 1.888 1.014.277.083.48.122 1.22.237.063.01.487.012.943.004.616-.01.928-.033 1.219-.09m-3.306-3.084c.269 1.38.805 2.25 1.56 2.537.305.116.862.11 1.177-.013.87-.339 1.336-1.312 1.487-3.108.212-2.502-.279-4.59-1.25-5.324-.439-.331-1.12-.44-1.61-.256-.717.267-1.177 1.057-1.395 2.394-.155.953-.14 2.896.03 3.77" clip-rule="evenodd"/><path fill="#000" d="M29.543 13.45v-.208l-.357-.026c-.822-.058-1.047-.127-1.263-.387-.313-.377-.382-1.072-.382-3.89v-2.2l.114-.101c.144-.128.594-.307.912-.362.646-.113 1.472-.016 2.118.25.186.075.345.131.354.123.02-.016 1.08-2.36 1.113-2.459.015-.045-.046-.084-.224-.143a2.9 2.9 0 0 0-1.14-.151c-1.144.055-2.158.69-2.888 1.807-.121.185-.247.337-.28.337-.046 0-.052-.212-.026-1.06l.031-1.06-.11.022c-.062.012-.981.168-2.044.346-2.28.383-2.596.439-2.65.467-.023.011-.042.08-.042.152 0 .146-.02.137.498.207.712.096.963.386 1.07 1.235.138 1.106.083 5.42-.078 6.008-.081.301-.293.591-.506.695a3 3 0 0 1-.552.136l-.409.066-.014.202-.014.202h6.769z"/><path fill="#000" fill-rule="evenodd" d="M38.262 13.87c1.398-.176 2.423-.577 3.291-1.289 1.255-1.029 1.86-2.48 1.778-4.27-.042-.922-.222-1.524-.679-2.27-.619-1.012-1.677-1.721-2.878-1.93-.902-.157-2.061-.034-2.943.311-.22.086-.43.157-.467.157-.06 0-.066-.285-.05-2.244L36.33.09l-.185.03c-.102.018-1.137.18-2.301.36s-2.162.336-2.218.347c-.084.016-.099.043-.09.164.01.134.024.146.193.177.583.107.687.146.904.333.266.23.386.523.465 1.134.062.487.076 8.883.016 10.122l-.035.735.474.085c1.797.32 3.588.432 4.708.291m-1.862-.653c.028.029.127.059.22.067.416.037.882.024 1.1-.03.337-.084.768-.34 1.028-.611.536-.559.92-1.424 1.132-2.545.102-.537.115-2.045.023-2.48-.284-1.333-.831-2.148-1.663-2.478-.415-.164-1-.184-1.543-.054l-.368.09-.041 1.211c-.053 1.528.033 6.75.112 6.83m14.538.653c1.066-.144 2.116-.572 2.87-1.17.414-.327.55-.485.493-.568-.153-.22-.146-.22-.538-.019-.624.32-.936.409-1.669.471q-1.281.111-2.374-.36c-.484-.207-1.064-.686-1.354-1.116-.395-.587-.61-1.273-.674-2.155-.026-.37-.02-.462.031-.49.036-.019 1.57-.034 3.435-.034h3.37v-.112c0-.253-.1-.933-.188-1.29-.358-1.434-1.303-2.456-2.651-2.867-.537-.164-1.044-.233-1.713-.233q-2.378 0-3.88 1.303c-.798.692-1.272 1.47-1.561 2.563-.087.33-.102.501-.102 1.193 0 .687.015.864.1 1.182.536 2.017 2.124 3.346 4.405 3.687a8.2 8.2 0 0 0 2 .015m-3.1-7.173c-.085.355-.17 1.04-.136 1.086.025.034 2.088.011 3.048-.033l.48-.023-.029-.601c-.056-1.22-.34-2.043-.839-2.427a1.13 1.13 0 0 0-.645-.233c-.053 0-.207.027-.343.061-.198.05-.309.113-.552.317q-.676.57-.984 1.853" clip-rule="evenodd"/><path fill="#000" d="M60.278 13.872c1.955-.249 3.217-1.125 3.548-2.464.16-.647.086-1.366-.191-1.847-.388-.673-1.043-1.08-2.666-1.654-1.206-.426-1.929-.787-2.225-1.111-.244-.268-.324-.475-.32-.832.004-.54.249-.952.715-1.21.391-.215.88-.268 1.45-.156.69.136 1.208.49 1.675 1.143.15.208.456.792.604 1.153.024.055.05.058.211.018a1 1 0 0 0 .216-.072c.017-.014.016-.565-.003-1.224l-.034-1.199-.167-.059c-.282-.1-1.017-.267-1.501-.341-.365-.056-.685-.07-1.542-.07-1.022 0-1.105.006-1.528.102-1.226.278-2.135.857-2.61 1.662-.253.427-.34.757-.337 1.272.004.732.242 1.273.77 1.745.454.406 1.044.695 2.049 1.006.79.244 1.607.585 1.917.8q.271.189.43.435c.153.234.16.265.16.631 0 .353-.012.406-.145.643-.35.617-1.05.923-1.966.86-1.244-.085-2.12-.773-2.834-2.226-.187-.38-.2-.387-.482-.297l-.13.041.032 1.355c.03 1.203.042 1.36.11 1.405.205.13 1.529.394 2.448.486.713.07 1.807.073 2.346.005"/></svg>