<svg width="177" height="45" viewBox="0 0 177 45" fill="none" xmlns="http://www.w3.org/2000/svg">
<path d="M107.935 12.8316C105.352 12.8316 102.845 13.5077 100.642 14.7097C100.642 8.24888 100.718 2.61444 100.87 0.435791L87.4251 2.99007V4.19208L88.7164 4.34233C90.6155 4.56771 91.2991 5.6946 91.527 8.17375C91.9068 12.9818 91.9068 38.4495 91.527 42.5063C95.3251 43.4078 99.1231 43.8585 102.997 43.9336C113.708 43.9336 120.164 37.3977 120.164 27.0303C120.164 18.7665 114.923 12.8316 107.935 12.8316ZM103.301 41.8301C102.541 41.8301 101.782 41.755 101.022 41.6047C100.794 38.75 100.642 26.9552 100.718 16.5878C101.706 16.2122 102.769 16.062 103.833 16.062C108.238 16.062 110.745 21.1705 110.745 27.4811C110.669 35.6698 107.631 41.8301 103.301 41.8301ZM36.759 13.1321L34.708 13.6579C32.809 7.64787 29.9225 4.19208 24.4533 4.19208H17.4648C17.161 8.09863 17.0091 14.4843 17.085 21.1705L21.7946 21.0203C24.909 20.9451 26.2004 18.6162 26.96 15.2356H28.7071V29.4344H26.96C26.2004 25.9786 24.909 23.7248 21.7187 23.5745L17.0091 23.4243C17.085 28.5328 17.237 32.815 17.3889 35.3693C17.6927 39.1256 18.7562 40.7784 21.4908 41.2291L23.8456 41.4545V43.1824H1.13318V41.4545L3.03221 41.2291C5.69085 40.8535 6.83027 39.2007 7.13411 35.3693C7.66584 29.1339 7.7418 16.2122 7.13411 9.00014C6.83027 5.24384 5.76681 3.59108 3.03221 3.21545L1.13318 2.99007V1.3373H36.6071L36.759 13.1321ZM48.0772 12.4559C58.18 12.4559 63.1175 19.2172 63.1175 28.1572C63.1175 37.0972 57.4964 43.9336 47.3935 43.9336C37.2907 43.9336 32.2773 37.1723 32.2773 28.3075C32.3532 19.3675 37.9744 12.4559 48.0772 12.4559ZM47.6214 14.4092C43.1397 14.4092 41.9243 20.3441 41.9243 28.2323C41.9243 36.1206 43.8993 42.0555 48.0012 42.0555C52.1031 42.0555 53.6983 36.1206 53.6983 28.2323C53.6983 20.3441 51.6474 14.4092 47.6214 14.4092ZM122.671 28.5329C122.671 20.269 127.912 12.531 138.319 12.531C146.751 12.531 150.777 18.6914 150.853 26.805H132.014C131.786 34.1673 135.584 39.5763 142.801 39.5763C145.915 39.5763 147.662 38.8251 149.637 37.3977L150.473 38.4495C148.422 41.3042 144.016 44.0088 138.243 44.0088C129.052 43.9336 122.671 37.6231 122.671 28.5329ZM132.014 24.7014L141.433 24.4761C141.509 20.3441 140.826 14.4092 137.408 14.4092C134.065 14.4843 132.09 20.0436 132.014 24.7014ZM175.008 21.7715L173.489 22.1472C171.894 16.8883 169.387 14.6346 165.741 14.6346C163.31 14.6346 161.563 16.4376 161.563 19.067C161.563 21.6964 163.538 23.0487 169.235 25.2273C174.932 27.406 176.528 29.5846 176.528 33.7917C176.528 40.1022 171.666 43.9336 163.614 43.9336C159.968 43.9336 156.398 43.2575 152.98 42.0555L152.752 33.3409L154.271 32.9653C156.474 39.0505 159.36 41.2291 163.158 41.2291C166.956 41.2291 168.172 38.9753 168.172 36.5713C168.172 34.1673 166.805 32.815 161.639 31.012C156.474 29.209 153.435 27.2557 153.435 21.9969C153.435 16.7381 157.993 12.4559 165.589 12.4559C169.083 12.4559 172.426 13.0569 174.705 14.0336L175.008 21.7715ZM86.1338 21.5461C82.0319 18.8416 77.6261 20.0436 76.7905 21.471C76.4867 26.805 76.5626 32.214 76.8665 37.548C77.0944 40.0271 77.854 41.154 79.6771 41.3794L82.1078 41.5296V43.2575H63.4214V41.5296L64.7127 41.3794C66.6117 41.154 67.2954 40.0271 67.5233 37.548C67.9031 31.7633 67.9031 25.9786 67.5233 20.1939C67.2954 17.7147 66.5358 16.5878 64.7127 16.3625L63.4214 16.2122V15.0102L76.8665 12.4559L76.7146 19.3675C79.829 12.2305 86.0578 11.2539 89.4001 13.2823L86.1338 21.5461Z" fill="black"/>
</svg>
